<mxfile host="app.diagrams.net" modified="2023-07-20T05:37:21.397Z" agent="Mozilla/5.0 (Windows NT 10.0; WOW64) AppleWebKit/537.36 (KHTML, like Gecko) Chrome/94.0.4606.71 Safari/537.36" version="21.6.3" etag="YJlKmKAFQHQgZSjbyFF6" type="github">
  <diagram name="第 1 页" id="mgeI1E0NKhMsf8tX0UXX">
    <mxGraphModel>
      <root>
        <mxCell id="0" />
        <mxCell id="1" parent="0" />
      </root>
    </mxGraphModel>
  </diagram>
</mxfile>
